<svg xmlns="http://www.w3.org/2000/svg" xmlns:xlink="http://www.w3.org/1999/xlink" version="1.1" data-diagram-type="SEQUENCE" style="width:757px;height:252px;background:#F9F9F9;" width="757px" height="252px" viewBox="0 0 757 252" zoomAndPan="magnify" preserveAspectRatio="none" contentStyleType="text/css"><?plantuml 1.2026.8?><defs/><g font-family="sans-serif" lengthAdjust="spacing"><rect x="0" y="0" width="757" height="252" fill="#F9F9F9" style="stroke:none;"/><g class="title" data-source-line="6"><text x="328.308" y="29.966" fill="#000" font-size="14" textLength="98.406" font-weight="700">Creating Note</text></g><g><title>client</title><rect x="239.156" y="130.136" width="8" height="111.118" fill="#000" fill-opacity="0"/><line x1="242.656" y1="130.136" x2="242.656" y2="241.254" style="stroke:#393939;stroke-width:0.5;stroke-dasharray:5,5;"/></g><g><title>server</title><rect x="502.586" y="130.136" width="8" height="111.118" fill="#000" fill-opacity="0"/><line x1="506.086" y1="130.136" x2="506.086" y2="241.254" style="stroke:#393939;stroke-width:0.5;stroke-dasharray:5,5;"/></g><text x="221.883" y="126.034" fill="#191919" font-size="14" textLength="35.546">client</text><ellipse cx="242.656" cy="66.568" rx="16" ry="16" fill="#191919" style="stroke:#191919;stroke-width:0.5;"/><path d="M242.656,86.568 C246.656,86.568 249.656,86.568 253.656,82.568 C261.656,82.568 269.656,90.568 269.656,98.568 L269.656,102.568 C269.656,106.568 265.656,110.568 261.656,110.568 L223.656,110.568 C219.656,110.568 215.656,106.568 215.656,102.568 L215.656,98.568 C215.656,90.568 223.656,82.568 231.656,82.568 C235.656,86.568 238.656,86.568 242.656,86.568" fill="#191919"/><text x="482.499" y="126.034" fill="#191919" font-size="14" textLength="41.174">server</text><path d="M488.086,75.068 C488.086,65.068 506.086,65.068 506.086,65.068 C506.086,65.068 524.086,65.068 524.086,75.068 L524.086,101.068 C524.086,111.068 506.086,111.068 506.086,111.068 C506.086,111.068 488.086,111.068 488.086,101.068 L488.086,75.068" style="stroke:#191919;stroke-width:0.5;" fill="#A4DBD8"/><path d="M488.086,75.068 C488.086,85.068 506.086,85.068 506.086,85.068 C506.086,85.068 524.086,85.068 524.086,75.068" style="stroke:#191919;stroke-width:0.5;" fill="none"/><polygon points="494.086,157.842,504.086,161.842,494.086,165.842,498.086,161.842" fill="#191919" style="stroke:#191919;stroke-width:1;stroke-linejoin:miter;stroke-miterlimit:10;"/><line x1="242.656" y1="161.842" x2="500.086" y2="161.842" style="stroke:#191919;stroke-width:1;"/><text x="249.656" y="156.033" fill="#000" font-size="13" font-weight="700">1</text><text x="261.092" y="156.033" fill="#000" font-size="13" textLength="35.815">sends</text><text x="300.287" y="156.033" fill="#000" font-size="13" textLength="46.8" font-family="monospace">noteId</text><text x="350.467" y="156.033" fill="#000" font-size="13">&amp;</text><text x="363.363" y="156.033" fill="#000" font-size="13" textLength="62.4" font-family="monospace">passHash</text><text x="429.143" y="156.033" fill="#000" font-size="13">&amp;</text><text x="442.039" y="156.033" fill="#000" font-size="13" textLength="31.2" font-family="monospace">salt</text><path d="M15,146.636 L15,184.636 A3.5,3.5 0 0 0 18.5,188.136 L233.5,188.136 A3.5,3.5 0 0 0 237,184.636 L237,153.136 L227,143.136 L18.5,143.136 A3.5,3.5 0 0 0 15,146.636" style="stroke:#191919;stroke-width:1.5;" fill="#E5E5E5"/><path d="M227,143.136 L227,151.386 A1.75,1.75 0 0 0 228.75,153.136 L237,153.136 L227,143.136" style="stroke:#191919;stroke-width:1.5;" fill="#E5E5E5"/><text x="21" y="162.033" fill="#191919" font-size="13" textLength="201.656">user inputs noteId and password</text><text x="21" y="179.739" fill="#191919" font-size="13" textLength="97.994">client generates</text><text x="122.374" y="179.739" fill="#191919" font-size="13" textLength="31.2" font-family="monospace">salt</text><text x="156.954" y="179.739" fill="#191919" font-size="13" textLength="23.322">and</text><text x="183.656" y="179.739" fill="#191919" font-size="13" textLength="31.2" font-family="monospace">hash</text><path d="M511.086,146.636 L511.086,166.636 A3.5,3.5 0 0 0 514.586,170.136 L614.586,170.136 A3.5,3.5 0 0 0 618.086,166.636 L618.086,153.136 L608.086,143.136 L514.586,143.136 A3.5,3.5 0 0 0 511.086,146.636" style="stroke:#191919;stroke-width:1.5;" fill="#E5E5E5"/><path d="M608.086,143.136 L608.086,151.386 A1.75,1.75 0 0 0 609.836,153.136 L618.086,153.136 L608.086,143.136" style="stroke:#191919;stroke-width:1.5;" fill="#E5E5E5"/><text x="517.086" y="162.033" fill="#191919" font-size="13" textLength="86.723">server saves it</text><polygon points="253.656,213.254,243.656,217.254,253.656,221.254,249.656,217.254" fill="#191919" style="stroke:#191919;stroke-width:1;stroke-linejoin:miter;stroke-miterlimit:10;"/><line x1="247.656" y1="217.254" x2="505.086" y2="217.254" style="stroke:#191919;stroke-width:1;stroke-dasharray:2,2;"/><text x="259.656" y="211.445" fill="#000" font-size="13" font-weight="700">2</text><text x="271.092" y="211.445" fill="#000" font-size="13" textLength="118.534">sends success code</text><text x="393.006" y="211.445" fill="#000" font-size="13" textLength="23.4" font-family="monospace">200</text><text x="419.786" y="211.445" fill="#000" font-size="13" textLength="13.234">or</text><text x="436.4" y="211.445" fill="#000" font-size="13" textLength="23.4" font-family="monospace">50*</text><text x="463.18" y="211.445" fill="#000" font-size="13" textLength="35.906">if fails</text><path d="M511.086,202.048 L511.086,222.048 A3.5,3.5 0 0 0 514.586,225.548 L736.586,225.548 A3.5,3.5 0 0 0 740.086,222.048 L740.086,208.548 L730.086,198.548 L514.586,198.548 A3.5,3.5 0 0 0 511.086,202.048" style="stroke:#191919;stroke-width:1.5;" fill="#E5E5E5"/><path d="M730.086,198.548 L730.086,206.798 A1.75,1.75 0 0 0 731.836,208.548 L740.086,208.548 L730.086,198.548" style="stroke:#191919;stroke-width:1.5;" fill="#E5E5E5"/><text x="517.086" y="217.445" fill="#191919" font-size="13" textLength="208.936">creates the note entry in database</text><path d="M61.618,202.048 L61.618,222.048 A3.5,3.5 0 0 0 65.118,225.548 L234.118,225.548 A3.5,3.5 0 0 0 237.618,222.048 L237.618,208.548 L227.618,198.548 L65.118,198.548 A3.5,3.5 0 0 0 61.618,202.048" style="stroke:#191919;stroke-width:1.5;" fill="#E5E5E5"/><path d="M227.618,198.548 L227.618,206.798 A1.75,1.75 0 0 0 229.368,208.548 L237.618,208.548 L227.618,198.548" style="stroke:#191919;stroke-width:1.5;" fill="#E5E5E5"/><text x="67.618" y="217.445" fill="#191919" font-size="13" textLength="155.038">redirect to the login page</text><?plantuml-src NP6nJiGm38RtF8N9m53ff0g9fK8iBDp2mXEuYTj6j4aLktVSs-EclOB8v3Z-Vtzs7cIWYM32p8Q_GfmnumJe9ELFkOq4U2LE4nc3YwIuJ2rbOoI8FbNLMoQK47luI49LfKMh4DmOA8hnADWY4p3boohRyd1wtJFGQ10zWxLH3SxUMdZKoupCxyZ3VcKSnLgpbi18dHZGiwW5AEyY39iOC7fOfTUKVQdP-_KKAQCG7rwbrDgXz32AK2pCrYA7Vf3cZiXuKM6GW_xbTFgFpujpn0mkULBRfxhM5he7Qv_hIiFGGOTXv3_-6z-wFdNNFoW0eFxvfbF1VNM_RCVq3MJo8PCJa5IaO-fLCcEl4u0PWa9qAKcRldy0?></g></svg>